<svg width="16" height="23" viewBox="0 0 16 23" fill="none" xmlns="http://www.w3.org/2000/svg">
<path d="M4.14322 22.5352C6.16721 22.5352 7.80987 20.8926 7.80987 18.8686V15.2019H4.14322C2.11922 15.2019 0.476562 16.8446 0.476562 18.8686C0.476562 20.8926 2.11922 22.5352 4.14322 22.5352Z" fill="#0ACF83"/>
<path d="M0.476562 11.5351C0.476562 9.51107 2.11922 7.86841 4.14322 7.86841H7.80987V15.2017H4.14322C2.11922 15.2017 0.476562 13.5591 0.476562 11.5351Z" fill="#A259FF"/>
<path d="M0.476562 4.20181C0.476562 2.17782 2.11922 0.535156 4.14322 0.535156H7.80987V7.86847H4.14322C2.11922 7.86847 0.476562 6.2258 0.476562 4.20181Z" fill="#F24E1E"/>
<path d="M7.80994 0.535156H11.4766C13.5006 0.535156 15.1432 2.17782 15.1432 4.20181C15.1432 6.2258 13.5006 7.86847 11.4766 7.86847H7.80994V0.535156Z" fill="#FF7262"/>
<path d="M15.1432 11.5351C15.1432 13.5591 13.5006 15.2017 11.4766 15.2017C9.4526 15.2017 7.80994 13.5591 7.80994 11.5351C7.80994 9.51107 9.4526 7.86841 11.4766 7.86841C13.5006 7.86841 15.1432 9.51107 15.1432 11.5351Z" fill="#1ABCFE"/>
</svg>
